<svg width="32" height="39" viewBox="0 0 32 39" fill="none" xmlns="http://www.w3.org/2000/svg">
<path d="M22.8702 24.0671H21.4248L20.9125 23.4763C22.7055 20.9821 23.785 17.744 23.785 14.2215C23.785 6.36684 18.4608 0 11.8925 0C5.32419 0 0 6.36684 0 14.2215C0 22.0761 5.32419 28.4429 11.8925 28.4429C14.8382 28.4429 17.546 27.1521 19.6318 25.0079L20.1258 25.6205V27.349L29.2739 38.2667L32 35.0067L22.8702 24.0671ZM11.8925 24.0671C7.33676 24.0671 3.65923 19.6694 3.65923 14.2215C3.65923 8.77355 7.33676 4.37583 11.8925 4.37583C16.4483 4.37583 20.1258 8.77355 20.1258 14.2215C20.1258 19.6694 16.4483 24.0671 11.8925 24.0671Z" fill="black"/>
</svg>
